<svg xmlns="http://www.w3.org/2000/svg" xmlns:xlink="http://www.w3.org/1999/xlink" width="167" height="50" viewBox="0 0 167 50"><defs><path id="14noa" d="M617.02 82.57c-.41 2.43-2.23 5.12-6.57 5.12-3.97 0-5.9-2.34-5.9-6.66V66.25h-8.4V80.5c0 1.98.82 3.09 2.06 3.09.87 0 1.53-.44 1.99-1.06l.08.04c-.41 2.43-2.23 5.12-6.57 5.12-3.97 0-5.91-2.34-5.91-6.66V66.25h-1.9v-.93h1.65c.66 0 .95 0 1.4-.44l7.11-7.14h.09v7.58h8.14c.66 0 .95 0 1.4-.44l7.12-7.14h.08v7.58h4.63v.93h-4.63V80.5c0 1.98.83 3.09 2.07 3.09.86 0 1.53-.44 1.98-1.06zm13.69-17.6c4.58 0 9.7 2.03 9.7 9.93 0 .31 0 .53-.03.93H628.1c.17 5.16 2.85 6.88 5.87 6.88 2.23 0 4.8-1.05 6.08-3.4l.08.05c-1.16 5.74-4.63 8.34-9.75 8.34-5.58 0-10.96-3.4-10.96-11.25 0-8.03 4.92-11.48 11.29-11.48zM632.77 75c.04-.7.04-1.41.04-2.03 0-6.27-1.11-7.1-2.27-7.1-1.57 0-2.44 1.58-2.44 9.13zm32.33 10.1c.3-.39.33-.52.33-1.1V59.72c0-.57-.04-.7-.33-1.1l-1.57-2.2v-.1L673.78 55v29c0 .57.04.7.33 1.1l1.61 2.16v.09h-12.19v-.09zm24.29-20.12c4.58 0 9.7 2.03 9.7 9.93 0 .31 0 .53-.04.93h-12.27c.17 5.16 2.85 6.88 5.87 6.88 2.23 0 4.8-1.05 6.07-3.4l.08.05c-1.15 5.74-4.62 8.34-9.74 8.34-5.58 0-10.95-3.4-10.95-11.25 0-8.03 4.91-11.48 11.28-11.48zM691.46 75c.04-.7.04-1.41.04-2.03 0-6.27-1.12-7.1-2.27-7.1-1.57 0-2.44 1.58-2.44 9.13zm-31.62-.87l-5.11-4.97c.85-2.57 2.27-4.18 4.33-4.18 1.48 0 2.6.8 3.3 1.99l-2.44 7.16zm-6.15 9.08c0 .53.08.7.7 1.2l3.85 2.86v.09h-14.8v-.09l1.57-2.16c.3-.4.33-.53.33-1.1V68.71c0-.57-.04-.7-.33-1.1l-1.57-2.2v-.1h10.25zM723 65.33v.09l-2.9 6c-.53 1.14-.82 1.8-1.2 2.73l-4.29 10.32c-.94 2.3-2.23 5-3.6 7.46l-1.93-5.17-6.41-17.42c-.17-.48-.38-1.01-.58-1.45l-1.12-2.48v-.08h12.11v.08l-1.45 2.6c-.2.36-.24.54-.08 1.02l3.72 11.56 2.77-6.62c.33-.79.33-.97.04-1.76l-2.52-6.8v-.08zm-19.72 23.65l6.23 5.46c-1.67 2.41-3.28 3.32-5.81 3.32-.62 0-1.33-.13-2.11-.44l1.61-8.34zM572.9 83.95c.21-.49.25-.66.09-1.2l-.92-3.3-.83-2.92-.2-.71h-7.77l2.77 11.53H556l5.72-11.52.42-.84h8.67l-4.07-14.47-3.22-4.18v-.02h11.66l7.19 25.47c.2.7.45 1.28.74 1.9l1.7 3.57v.09h-13.35v-.1zm3.81 18.03c.08 0 .13.02.16.05a.2.2 0 0 1 .03.12c0 .03-.03.08-.08.14-.06.07-.14.13-.24.2-.1.07-.22.13-.35.18-.14.05-.28.08-.45.08a.65.65 0 0 1-.34-.1c-.1-.05-.15-.15-.15-.3v-.43a2.8 2.8 0 0 1-.6.6c-.22.15-.48.23-.8.23-.25 0-.48-.04-.66-.13a1.28 1.28 0 0 1-.79-1.19c0-.33.08-.62.24-.85.16-.23.38-.43.65-.58.26-.15.57-.27.9-.36.35-.08.7-.13 1.06-.16v-.25l-.03-.54a1.42 1.42 0 0 0-.15-.5.57.57 0 0 0-.34-.29 1.54 1.54 0 0 0-.43-.06c-.19 0-.34 0-.44.02a.66.66 0 0 0-.24.06.18.18 0 0 0-.1.13l-.01.23c0 .1.01.17.04.2.02.02.03.05.03.1s-.02.12-.07.18a.75.75 0 0 1-.16.17c-.07.05-.14.09-.23.12a.68.68 0 0 1-.22.04c-.17 0-.26-.05-.3-.15a.83.83 0 0 1-.05-.27c0-.18.08-.35.25-.53a3.7 3.7 0 0 1 1.33-.82c.25-.08.47-.12.64-.12.3 0 .54.05.73.14.18.1.32.23.42.38.1.16.17.34.2.54.04.2.06.4.06.6v3.22c.07 0 .15-.01.24-.05a.74.74 0 0 1 .25-.05zM575.3 100a4.03 4.03 0 0 0-1.23.21c-.18.07-.33.18-.45.31a.74.74 0 0 0-.18.52c0 .3.07.55.21.74.14.2.4.3.78.3.14 0 .3-.05.45-.15.16-.1.3-.24.42-.41zm12.26-2.59c.1 0 .17.02.22.05.05.03.07.06.07.09 0 .13-.05.23-.16.28-.1.05-.23.09-.37.1l-1.68 4.75h-.46l-1.04-3.02-1.08 3.02h-.43l-1.71-4.56-.09-.2a.89.89 0 0 1-.34-.1c-.1-.04-.14-.14-.14-.27 0-.03.02-.06.07-.1a.4.4 0 0 1 .21-.04h1.48c.08 0 .14.03.18.1.04.05.06.1.06.16 0 .08-.05.14-.15.18-.1.03-.23.06-.37.08l1.16 3.47.85-2.58-.24-.7-.08-.2a.62.62 0 0 1-.3-.1c-.08-.04-.12-.14-.12-.27 0-.03.04-.06.1-.1a.54.54 0 0 1 .23-.04h1.47a.2.2 0 0 1 .17.1c.04.05.06.1.06.16 0 .08-.06.14-.2.18-.12.03-.27.06-.44.08l1.05 3.44 1.16-3.44a3.72 3.72 0 0 1-.52-.08 1.1 1.1 0 0 1-.23-.08c-.07-.03-.1-.06-.1-.1 0-.05.02-.1.06-.17.03-.06.09-.09.17-.09zm5.07.64c.17.25.3.53.37.84a3.88 3.88 0 0 1-.31 2.7 2.22 2.22 0 0 1-1.2.98c-.3.12-.62.18-.94.18a2.1 2.1 0 0 1-.81-.16c-.25-.1-.47-.26-.66-.48a2.39 2.39 0 0 1-.44-.8 3.97 3.97 0 0 1 0-2.23c.1-.35.26-.67.47-.95a2.3 2.3 0 0 1 1.89-.93 1.9 1.9 0 0 1 1.63.85zm-.52 2.9a4.64 4.64 0 0 0-.02-1.6c-.05-.3-.14-.56-.26-.8a1.73 1.73 0 0 0-.49-.58 1.2 1.2 0 0 0-.75-.23.83.83 0 0 0-.54.18c-.15.12-.27.28-.35.48-.1.2-.16.42-.2.67a4.39 4.39 0 0 0 .01 1.58c.06.28.14.53.26.76.12.23.29.42.5.57.2.15.46.23.76.23.2 0 .39-.06.53-.17.15-.11.26-.27.35-.45.1-.19.16-.4.2-.64zm5.5-3.6a.79.79 0 0 1 .35.7c0 .07-.03.14-.07.2a.72.72 0 0 1-.15.17l-.21.12a.68.68 0 0 1-.22.06.24.24 0 0 1-.14-.04c-.04-.02-.07-.09-.08-.2-.04-.17-.09-.28-.16-.33-.06-.05-.16-.08-.3-.08-.1 0-.2.05-.3.16a2.87 2.87 0 0 0-.47.87c-.05.17-.07.32-.07.45v2.33c0 .1.05.18.16.21.1.04.22.06.34.08l.34.08c.1.03.15.1.15.2 0 .16-.12.25-.36.25h-1.9c-.09 0-.14-.03-.16-.08a.33.33 0 0 1-.04-.15c0-.04.02-.07.07-.1.04-.04.1-.07.16-.1a7.91 7.91 0 0 1 .33-.15V98.3a1.82 1.82 0 0 1-.43-.15c-.15-.06-.23-.13-.23-.18 0-.07.05-.15.13-.23.08-.08.19-.15.31-.2a2.3 2.3 0 0 1 .77-.22c.06 0 .1 0 .16.02.05.01.08.05.1.1v1.04c.14-.35.33-.65.57-.9.23-.25.51-.38.83-.38l.24.04c.1.02.19.07.28.13zm3.2 4.78c.08.03.12.1.12.2 0 .16-.12.24-.36.24h-1.64c-.09 0-.14-.03-.17-.08a.34.34 0 0 1-.03-.15c0-.03.02-.07.07-.1l.16-.1a3.92 3.92 0 0 1 .33-.14v-6.74a1.43 1.43 0 0 1-.4-.12c-.11-.05-.16-.1-.16-.15 0-.12.04-.22.12-.29.09-.07.2-.12.32-.17a3.42 3.42 0 0 1 .77-.1c.13 0 .2.07.24.22v7.1c0 .1.04.18.11.22.08.05.17.08.26.1.1.01.18.04.26.06zm5.72-.13c.06 0 .1.02.12.05a.2.2 0 0 1 .03.12c0 .03-.02.08-.07.14-.05.07-.12.13-.2.2-.1.06-.2.11-.33.16a1.2 1.2 0 0 1-.43.08c-.28 0-.42-.13-.42-.4v-.3c-.2.23-.41.4-.64.52-.24.12-.52.18-.85.18a1.93 1.93 0 0 1-1.4-.63c-.18-.2-.33-.45-.44-.75-.11-.29-.17-.62-.17-1a4 4 0 0 1 .16-1.12c.11-.38.28-.72.5-1.02a2.34 2.34 0 0 1 2.02-1.03c.3 0 .57.04.82.12l-.05-1.03v-1.06a5.37 5.37 0 0 0-.54-.1 2.3 2.3 0 0 1-.22-.07c-.06-.03-.09-.05-.09-.07 0-.1.05-.18.14-.25.08-.08.2-.13.34-.18a2.96 2.96 0 0 1 1.16-.12c.05 0 .08.04.1.09v7.55c.06 0 .14-.01.21-.04a.75.75 0 0 1 .25-.04zm-1.82-.01c.18-.07.34-.16.49-.3l-.01-3.41a.68.68 0 0 0-.24-.24c-.1-.06-.2-.1-.32-.13-.1-.03-.21-.05-.32-.05h-.26c-.48 0-.81.18-1 .52-.2.35-.3.85-.3 1.5 0 .66.13 1.19.37 1.6.24.4.6.6 1.1.6.15 0 .32-.03.5-.1zm10.3-3.94c.16.25.29.53.36.84a3.88 3.88 0 0 1-.3 2.7c-.1.19-.24.35-.4.5-.22.21-.49.38-.8.49-.31.11-.63.17-.94.17a2.1 2.1 0 0 1-.81-.16c-.26-.1-.48-.26-.66-.48a2.37 2.37 0 0 1-.45-.8 3.94 3.94 0 0 1 0-2.23c.1-.35.26-.67.47-.95a2.3 2.3 0 0 1 1.89-.93 1.9 1.9 0 0 1 1.64.85zm-.53 2.9a4.76 4.76 0 0 0-.02-1.6c-.05-.3-.14-.56-.26-.8a1.73 1.73 0 0 0-.49-.58 1.2 1.2 0 0 0-.75-.23.83.83 0 0 0-.54.18c-.15.12-.26.28-.35.48-.09.2-.15.42-.2.67a4.5 4.5 0 0 0 .02 1.58c.05.28.14.53.26.76.12.23.28.42.49.57.2.15.46.23.76.23.21 0 .4-.06.54-.17.14-.11.26-.27.35-.45.09-.19.16-.4.2-.64zm5.39-6.45c.09.06.17.14.23.24.06.1.1.21.1.35 0 .06-.03.12-.08.19a1.17 1.17 0 0 1-.43.32.62.62 0 0 1-.23.06c-.09 0-.14-.04-.16-.12a5.72 5.72 0 0 1-.05-.25.83.83 0 0 0-.09-.26c-.04-.07-.13-.1-.27-.1a.42.42 0 0 0-.37.18c-.08.13-.15.28-.2.47-.04.18-.07.37-.08.56l-.02.5v.77h1.03c.07 0 .11.03.14.05.02.03.04.05.04.09 0 .08-.04.19-.12.3-.08.12-.17.19-.26.2h-.83v3.72c.01.1.07.17.17.2.1.04.22.06.35.08l.34.07c.1.03.16.1.16.2 0 .17-.12.25-.36.25h-2.02c-.08 0-.13-.03-.16-.08a.33.33 0 0 1-.04-.15c0-.04.03-.08.09-.12l.2-.09a4.78 4.78 0 0 1 .38-.14v-3.94h-.67c-.05 0-.08-.01-.1-.05a.17.17 0 0 1-.04-.08c0-.05.04-.1.11-.16l.25-.16a2.15 2.15 0 0 1 .45-.19v-.47c0-.34.04-.67.13-.98.1-.32.23-.6.4-.84.18-.24.39-.44.64-.59.24-.14.52-.21.82-.21a.98.98 0 0 1 .55.18zm7.64 3.32c.18.2.33.45.45.74.1.3.16.64.16 1.01 0 .38-.05.76-.16 1.13-.1.38-.28.73-.5 1.03a2.44 2.44 0 0 1-2.04 1.02 2.3 2.3 0 0 1-1.64-.65l.01-6.95a1.17 1.17 0 0 1-.36-.1c-.1-.05-.14-.1-.14-.14 0-.1.05-.18.13-.24a.85.85 0 0 1 .29-.15l.37-.07a2.86 2.86 0 0 1 .5-.01c.05 0 .08.04.1.09v1.72l-.09 1.62c.2-.2.43-.36.68-.49.25-.12.53-.18.84-.18a1.88 1.88 0 0 1 1.4.62zm-.49 3.02c.05-.24.07-.5.07-.78 0-.66-.12-1.2-.37-1.62a1.2 1.2 0 0 0-1.1-.61c-.17 0-.33.03-.5.1-.15.07-.3.2-.44.37v3.34c.07.09.15.16.25.22s.2.1.31.14a1.73 1.73 0 0 0 .56.1c.24 0 .44-.06.6-.17.17-.1.3-.26.4-.44.1-.19.18-.4.22-.65zm6.36-2.8c.17.26.3.54.37.85a3.88 3.88 0 0 1-.3 2.7 2.21 2.21 0 0 1-1.2.98c-.31.12-.63.18-.94.18a2.1 2.1 0 0 1-.82-.16c-.25-.1-.47-.26-.65-.48a2.35 2.35 0 0 1-.45-.8 3.94 3.94 0 0 1 0-2.23c.1-.35.26-.67.47-.95a2.3 2.3 0 0 1 1.89-.93 1.9 1.9 0 0 1 1.63.85zm-.52 2.9a4.64 4.64 0 0 0-.02-1.6c-.05-.29-.14-.55-.26-.79a1.73 1.73 0 0 0-.49-.58 1.2 1.2 0 0 0-.75-.23.83.83 0 0 0-.54.18c-.15.12-.26.28-.35.48-.09.2-.16.42-.2.67a4.39 4.39 0 0 0 .02 1.58c.05.28.14.53.26.76.12.23.28.42.49.57.2.15.46.23.76.23.21 0 .39-.06.53-.17.15-.11.27-.27.36-.45.09-.19.15-.4.2-.64zm6.65 1.07c.15 0 .22.06.22.17 0 .03-.02.08-.06.14a.84.84 0 0 1-.19.2 1.22 1.22 0 0 1-.73.24.61.61 0 0 1-.33-.1c-.1-.05-.14-.16-.14-.3v-.28c-.22.2-.44.36-.67.49-.23.12-.5.19-.83.19-.21 0-.43-.04-.66-.11a.9.9 0 0 1-.51-.4c-.13-.2-.2-.4-.23-.6a3.8 3.8 0 0 1-.05-.56L635.3 98a.72.72 0 0 1-.33-.14c-.1-.07-.14-.14-.14-.19 0-.11.1-.2.3-.25a3.28 3.28 0 0 1 1.02-.07c.04.01.07.04.08.1v3.09c0 .37.02.66.07.87.04.22.1.37.17.48.07.1.16.17.27.2a1.51 1.51 0 0 0 .96-.1c.21-.08.4-.2.57-.34v-3.64a1.96 1.96 0 0 1-.46-.12c-.14-.06-.2-.13-.2-.21 0-.12.1-.2.33-.26a4.23 4.23 0 0 1 1.13-.06c.04.01.07.05.08.12v4.65c.07 0 .11-.02.13-.07.03-.04.1-.06.22-.06zm3.73-.08c.11 0 .17.02.18.08l.02.1c0 .1-.05.18-.15.26-.1.07-.24.13-.4.19a3.73 3.73 0 0 1-1.05.16.64.64 0 0 1-.47-.21c-.13-.13-.2-.33-.2-.58v-3.89h-.45a.1.1 0 0 1-.06-.08.37.37 0 0 1-.02-.1c0-.07.02-.12.05-.15l.14-.1.2-.13c.07-.06.14-.16.22-.3.05-.1.09-.21.12-.35l.09-.4c.03-.13.07-.24.11-.33.05-.09.11-.13.19-.13l.18.01a.4.4 0 0 1 .14.04v1.4h1c.1 0 .16.01.18.05.02.03.04.08.04.14a.5.5 0 0 1-.1.28c-.05.1-.13.15-.23.15h-.89v2.87c0 .27 0 .48.02.63 0 .15.02.27.05.34.04.08.08.12.15.14a1.13 1.13 0 0 0 .6-.03c.11-.04.22-.06.34-.06zm1.98-5.66a.77.77 0 0 1-.25-.14.52.52 0 0 1-.16-.27c0-.07.02-.13.06-.22a1 1 0 0 1 .33-.4.38.38 0 0 1 .2-.08c.32 0 .54.06.66.18s.18.23.18.34c0 .07-.02.13-.06.21a.93.93 0 0 1-.35.37.42.42 0 0 1-.22.07c-.15 0-.29-.02-.4-.06zm1.45 5.87c.08.03.12.09.12.18 0 .17-.12.25-.36.25h-1.75c-.09 0-.14-.03-.17-.08a.36.36 0 0 1-.03-.15c0-.04.03-.07.08-.11l.2-.1a5.61 5.61 0 0 1 .4-.17v-3.67a1.93 1.93 0 0 1-.45-.15 1.24 1.24 0 0 1-.17-.09c-.04-.03-.06-.06-.06-.09 0-.07.04-.15.12-.23.09-.08.2-.15.32-.2.13-.07.26-.12.4-.16a1.1 1.1 0 0 1 .59-.04c.08.02.12.05.14.1v4.3c0 .12.04.2.11.23.08.04.17.08.26.1l.25.08zm5.58 2.36l.2.08c.06.02.1.08.1.17 0 .17-.13.25-.36.25h-1.71c-.09 0-.14-.03-.17-.08a.34.34 0 0 1-.03-.15c0-.04.03-.08.1-.12l.24-.09a3.46 3.46 0 0 1 .46-.13v-2.21a2.17 2.17 0 0 1-2.22.35c-.24-.1-.46-.26-.64-.46a2.3 2.3 0 0 1-.44-.75c-.1-.3-.16-.62-.16-1a4 4 0 0 1 .16-1.13c.11-.37.28-.71.5-1.01a2.4 2.4 0 0 1 2.04-1.03 2.3 2.3 0 0 1 .93.19 2.14 2.14 0 0 1 .48-.08c.05 0 .1.01.14.03.04.02.07.07.08.12v6.72c0 .12.03.2.1.24a.8.8 0 0 0 .2.1zm-1.17-6.2a.8.8 0 0 0-.25-.22 1.9 1.9 0 0 0-.9-.24c-.23 0-.44.05-.6.16-.18.11-.32.26-.43.44-.1.19-.19.4-.24.65a3.9 3.9 0 0 0 .02 1.7c.07.28.17.51.3.7.14.2.3.36.49.46.2.11.41.17.65.17.17 0 .33-.05.5-.14.16-.09.32-.23.46-.41zm6.72 3.71c.15 0 .23.06.23.17 0 .03-.03.08-.07.14a.83.83 0 0 1-.18.2 1.22 1.22 0 0 1-.74.24.62.62 0 0 1-.33-.1c-.1-.05-.14-.16-.14-.3v-.28c-.21.2-.44.36-.67.49-.23.12-.5.19-.83.19-.21 0-.43-.04-.66-.11a.9.9 0 0 1-.52-.4c-.12-.2-.2-.4-.23-.6a3.8 3.8 0 0 1-.04-.56l-.02-3.08a.73.73 0 0 1-.34-.14c-.1-.07-.14-.14-.14-.19 0-.11.1-.2.3-.25a3.31 3.31 0 0 1 1.03-.07c.04.01.06.04.08.1v3.09c0 .37.02.66.06.87.04.22.1.37.18.48.07.1.16.17.27.2a1.5 1.5 0 0 0 .97-.1c.2-.08.39-.2.56-.34v-3.64a1.97 1.97 0 0 1-.46-.12c-.14-.06-.2-.13-.2-.21 0-.12.1-.2.33-.26a4.23 4.23 0 0 1 1.13-.06c.04.01.07.05.09.12v4.65c.06 0 .1-.02.13-.07.02-.04.1-.06.21-.06zm5.08-3.91c.13.26.22.55.26.86.04.3.07.61.07.9 0 .12-.04.18-.13.2l-.29.02h-2.85c.02.25.05.5.11.74s.15.46.27.64c.11.2.26.34.44.46s.38.17.62.17a2.53 2.53 0 0 0 1.3-.33.49.49 0 0 1 .24-.06c.1 0 .15.04.15.12 0 .1-.06.2-.16.31-.1.11-.25.21-.43.3a3.16 3.16 0 0 1-1.36.31 1.95 1.95 0 0 1-1.63-.74 2.3 2.3 0 0 1-.39-.78 4.18 4.18 0 0 1 .04-2.14c.12-.38.28-.7.48-.98.2-.28.46-.5.76-.66.3-.16.63-.24 1-.24.4 0 .71.08.95.25.24.17.42.38.55.65zm-.7 1.45c0-.24-.02-.47-.05-.68-.03-.22-.08-.4-.16-.55a.92.92 0 0 0-.34-.38c-.15-.09-.34-.14-.58-.14-.35 0-.61.17-.8.5-.17.33-.28.74-.3 1.25zm8.23.41c.2.14.36.3.48.5.13.19.2.43.2.72 0 .26-.07.48-.18.68-.12.2-.27.36-.46.49-.18.13-.4.23-.63.3-.23.06-.47.1-.7.1-.13 0-.27-.02-.42-.05a3 3 0 0 1-.43-.14 1.62 1.62 0 0 1-.38-.21c-.12-.09-.2-.18-.27-.28l.01-.35c0-.14 0-.27.02-.4a.99.99 0 0 1 .07-.31c.04-.09.1-.13.19-.13.04 0 .08.03.1.08l.1.2.08.24.06.18c.08.15.23.29.46.42.22.13.48.2.77.2.18 0 .35-.06.51-.18a.6.6 0 0 0 .24-.51c0-.2-.07-.38-.2-.52a1.98 1.98 0 0 0-.46-.36 6.6 6.6 0 0 0-.61-.3c-.22-.09-.42-.2-.6-.33a1.8 1.8 0 0 1-.48-.47 1.21 1.21 0 0 1-.18-.7c0-.25.05-.48.16-.69.12-.2.26-.37.44-.51s.38-.25.6-.32c.23-.07.45-.11.67-.11.42 0 .73.07.93.22.2.14.3.3.3.44v.29l-.02.34a.95.95 0 0 1-.08.27c-.03.08-.09.11-.16.11-.04 0-.08-.03-.12-.09a1.92 1.92 0 0 1-.2-.47.67.67 0 0 0-.31-.38 1.94 1.94 0 0 0-.82-.11c-.16 0-.3.04-.42.14s-.18.25-.18.49c0 .2.06.36.19.49.12.13.28.25.48.35l.62.31c.23.1.44.22.63.36zm4.3 1.97c.11 0 .17.02.19.08l.02.1c0 .1-.05.18-.16.26-.1.07-.24.13-.4.19a3.78 3.78 0 0 1-1.05.16.65.65 0 0 1-.47-.21c-.14-.13-.2-.33-.2-.58v-3.89h-.45a.12.12 0 0 1-.07-.08.45.45 0 0 1-.02-.1c0-.07.02-.12.06-.15l.13-.1.2-.13a1 1 0 0 0 .23-.3c.05-.1.09-.21.11-.35l.1-.4c.03-.13.06-.24.11-.33.05-.09.1-.13.19-.13l.18.01c.07 0 .12.02.14.04v1.4h1.01c.1 0 .15.01.17.05.03.03.04.08.04.14 0 .1-.03.19-.09.28-.06.1-.14.15-.24.15h-.89v2.87l.01.63a1 1 0 0 0 .06.34c.03.08.08.12.15.14a1.13 1.13 0 0 0 .6-.03.97.97 0 0 1 .35-.06zm5.7-4.5c.1 0 .18 0 .23.04.04.03.07.06.07.09a.3.3 0 0 1-.2.28c-.12.06-.25.1-.4.11l-1.71 5.1c-.13.37-.27.68-.41.93-.14.24-.29.44-.43.6-.15.15-.3.26-.46.32-.15.07-.31.1-.47.1a.67.67 0 0 1-.29-.07.88.88 0 0 1-.27-.19 1.07 1.07 0 0 1-.2-.29.84.84 0 0 1 .03-.78c.08-.13.22-.2.43-.2.1 0 .16.03.2.1l.07.25c.02.09.06.17.12.24.06.07.16.1.32.1.17 0 .32-.1.46-.33.13-.22.25-.48.35-.8l-1.96-4.9-.25-.2c-.13 0-.2-.04-.24-.1a.67.67 0 0 1-.04-.27c0-.03 0-.06.02-.1.02-.02.07-.04.17-.04h1.6c.08 0 .14.03.17.1.04.05.05.1.05.16 0 .08-.05.14-.17.18l-.4.08.94 2.6.46 1.5.34-1.5.82-2.6a2.52 2.52 0 0 0-.23-.04 2.12 2.12 0 0 1-.24-.04.56.56 0 0 1-.18-.08c-.05-.03-.07-.06-.07-.1 0-.05.02-.1.06-.17a.2.2 0 0 1 .17-.09zm2.8 4.7c.07.03.11.1.11.2 0 .16-.12.24-.36.24h-1.63c-.09 0-.14-.03-.17-.08a.35.35 0 0 1-.03-.15c0-.03.02-.07.07-.1l.16-.1a3.9 3.9 0 0 1 .33-.14v-6.74a1.41 1.41 0 0 1-.4-.12c-.1-.05-.16-.1-.16-.15 0-.12.04-.22.12-.29.09-.07.2-.12.31-.17a3.37 3.37 0 0 1 .77-.1c.13 0 .21.07.24.22v7.1c0 .1.04.18.12.22.08.05.16.08.26.1.1.01.18.04.25.06zm4.93-4.03c.13.26.21.55.25.86.04.3.07.61.08.9 0 .12-.05.18-.14.2l-.29.02h-2.85c.01.25.05.5.1.74.07.24.16.46.27.64.12.2.27.34.44.46.18.12.4.17.63.17a2.56 2.56 0 0 0 1.03-.2c.11-.04.2-.09.28-.13a.47.47 0 0 1 .23-.06c.1 0 .15.04.15.12 0 .1-.05.2-.16.31-.1.11-.25.21-.43.3a3.2 3.2 0 0 1-1.37.31 1.93 1.93 0 0 1-1.63-.74c-.17-.22-.3-.48-.39-.78a4.24 4.24 0 0 1 .04-2.14c.12-.38.28-.7.49-.98.2-.28.46-.5.76-.66.3-.16.63-.24 1-.24.4 0 .71.08.95.25.24.17.42.38.56.65zm-.73 1.45c0-.24-.02-.47-.05-.68-.03-.22-.08-.4-.16-.55a.92.92 0 0 0-.33-.38c-.15-.09-.34-.14-.58-.14a.86.86 0 0 0-.8.5c-.17.33-.28.74-.3 1.25z"/></defs><g><g transform="translate(-556 -55)"><use xlink:href="#14noa"/></g></g></svg>